<svg width="93" height="61" viewBox="0 0 93 61" fill="none" xmlns="http://www.w3.org/2000/svg">
<path fill-rule="evenodd" clip-rule="evenodd" d="M81.5639 61L54.2975 61L53.8927 56.3307L47.5368 47.2577L50.3994 41.3869L53.5046 45.9962L61.025 48.2766L62.7232 47.2577V45.511L55.4939 42.5999L52.2916 33.6725L47.8279 31.2465L38.8519 47.2577L48.9924 57.7863L49.5601 61H42.7374L45.0138 55.4089L40.259 50.7996L37.8816 60.4548L37.2968 61L11.1272 61L0 61L25.6676 16.5424L31.2312 26.1788L46.3456 0L61.1153 25.5819L66.3343 16.5424L92.0019 61L81.5639 61ZM46.4694 30.9069L38.1242 46.627L37.8331 46.5474L37.4934 49.8292L36.5716 49.4896V46.2025L35.9945 46.0447L33.4664 50.1688L32.2049 49.4896L34.7521 45.7051L31.3801 44.7833L31.7682 39.1066L37.4934 30.0821L42.1998 29.0147L46.4694 30.9069ZM53.262 31.7803C55.5665 31.7803 57.4346 29.9121 57.4346 27.6076C57.4346 25.3032 55.5665 23.435 53.262 23.435C50.9575 23.435 49.0894 25.3032 49.0894 27.6076C49.0894 29.9121 50.9575 31.7803 53.262 31.7803Z" fill="white"/>
</svg>
